<svg xmlns="http://www.w3.org/2000/svg" xmlns:xlink="http://www.w3.org/1999/xlink" width="26" height="26" id="grid"><defs><linearGradient id="b" x1="949.87" x2="974.39" y1="518.014" y2="544.657" gradientTransform="translate(-737.745 625.151) scale(.78112)" gradientUnits="userSpaceOnUse" xlink:href="#a"></linearGradient><linearGradient id="a"><stop offset="0" stop-color="#24f7bc"></stop><stop offset="1" stop-color="#24c4fc"></stop></linearGradient></defs><g transform="translate(-1.03 -1096.225) scale(1.06642)"><rect width="24.381" height="24.381" x=".965" y="1027.95" fill="url(#b)" rx="5.152" ry="5.152"></rect><path style="line-height:normal;text-indent:0;text-align:start;text-decoration-line:none;text-decoration-style:solid;text-decoration-color:#000;text-transform:none;block-progression:tb;isolation:auto;mix-blend-mode:normal" fill="#fff" fill-rule="evenodd" d="M7.06 1033.577a.469.469 0 0 0-.468.469v2.813c0 .259.21.469.469.469h2.813c.259 0 .469-.21.469-.47v-2.812a.469.469 0 0 0-.47-.47zm4.69 0a.469.469 0 0 0-.47.469v2.813c0 .259.21.469.47.469h2.812c.26 0 .47-.21.47-.47v-2.812a.469.469 0 0 0-.47-.47zm4.688 0a.47.47 0 0 0-.471.469v2.813c0 .26.211.47.47.469h2.814c.259 0 .469-.21.469-.47v-2.812a.469.469 0 0 0-.47-.47zm-9.377 4.688a.469.469 0 0 0-.47.47v2.812c0 .26.21.47.47.47h2.813c.259 0 .469-.21.469-.47v-2.813a.469.469 0 0 0-.47-.469zm4.688 0a.469.469 0 0 0-.469.47v2.812c0 .26.21.47.47.47h2.812c.26 0 .47-.21.47-.47v-2.813a.469.469 0 0 0-.47-.469zm4.689 0a.469.469 0 0 0-.471.47v2.812c0 .26.211.47.47.47h2.814c.259 0 .469-.21.469-.47v-2.813a.469.469 0 0 0-.47-.469zm-9.377 4.689a.469.469 0 0 0-.47.469v2.813c0 .259.21.469.47.469h2.813c.259 0 .469-.21.469-.47v-2.812a.469.469 0 0 0-.47-.47zm4.688 0a.469.469 0 0 0-.469.469v2.813c0 .259.21.469.47.469h2.812c.26 0 .47-.21.47-.47v-2.812a.469.469 0 0 0-.47-.47zm4.689 0a.469.469 0 0 0-.471.469v2.813c0 .26.211.47.47.469h2.814c.259 0 .469-.21.469-.47v-2.812a.469.469 0 0 0-.47-.47z" color="#000" font-family="sans-serif" font-weight="400" overflow="visible"></path></g></svg>