<svg xmlns="http://www.w3.org/2000/svg" viewBox="0 0 64 64" id="online-education"><path fill="#424a4d" d="M38 8H26a1 1 0 0 0-1 1v4.45A3.55 3.55 0 0 0 28.55 17h6.9A3.55 3.55 0 0 0 39 13.45V9a1 1 0 0 0-1-1Z"></path><path fill="#1f2526" d="m44.09 6.89-11.88-2.5a1 1 0 0 0-.42 0l-11.88 2.5a1 1 0 0 0-.05 2L31.75 12a1.06 1.06 0 0 0 .5 0l11.89-3.16a1 1 0 0 0-.05-1.95Z"></path><rect width="58" height="34" x="3" y="23" fill="#0a51ad" rx="1"></rect><path fill="#1e7eeb" d="M60 23H32v34h28a1 1 0 0 0 1-1V24a1 1 0 0 0-1-1Z"></path><path fill="#f08f1f" d="M56 20v29a1 1 0 0 1-1 1H42.72a19 19 0 0 0-8.5 2c-2.72 1.18-1.49 1.45-4.44 0a19 19 0 0 0-8.5-2H9a1 1 0 0 1-1-1V20a1 1 0 0 1 1-1h13a22.53 22.53 0 0 1 10 2.86A22.19 22.19 0 0 1 42.72 19H55a1 1 0 0 1 1 1Z"></path><path fill="#008abd" d="M22 19v17a1 1 0 0 1-1.55.83L18 35.2l-2.45 1.63A1 1 0 0 1 14 36V19h8Z"></path><path fill="#ffd138" d="M55 19H42.72A22.19 22.19 0 0 0 32 21.88V53c.44 0 .77-.36 2.22-1a19 19 0 0 1 8.5-2H55a1 1 0 0 0 1-1V20a1 1 0 0 0-1-1Z"></path><path fill="#008abd" d="M38 43h12v2H38zM38 39h8.13v2H38zM38 35h12v2H38zM38 31h8.13v2H38zM38 27h12v2H38z"></path><path fill="#31b6eb" d="M60 23h-3v34h3a1 1 0 0 0 1-1V24a1 1 0 0 0-1-1Z"></path><path fill="#003996" d="M4 57h3V23H4a1 1 0 0 0-1 1v32a1 1 0 0 0 1 1Z"></path><path fill="#ffe37e" d="M55 19h-3v31h3a1 1 0 0 0 1-1V20a1 1 0 0 0-1-1Z"></path><path fill="#f26c24" d="M9 50h3V19H9a1 1 0 0 0-1 1v29a1 1 0 0 0 1 1Z"></path></svg>